<svg xmlns="http://www.w3.org/2000/svg" aria-label="Retail Tower Console logo: dashboard in cyan" role="img" viewBox="0 0 256 256"><title>Retail Tower Console</title><defs><linearGradient id="bg" x1="0" x2="0" y1="0" y2="1"><stop offset="0" stop-color="#0e7490"/><stop offset="1" stop-color="#063243"/></linearGradient><linearGradient id="hi" x1="0" x2="0" y1="0" y2="1"><stop offset="0" stop-color="#fff" stop-opacity=".3"/><stop offset="1" stop-color="#fff" stop-opacity="0"/></linearGradient><radialGradient id="gl" cx=".5" cy=".5" r=".5"><stop offset="0" stop-color="#22d3ee" stop-opacity=".55"/><stop offset="1" stop-color="#22d3ee" stop-opacity="0"/></radialGradient><linearGradient id="chrome" x1="0" x2="0" y1="0" y2="1"><stop offset="0" stop-color="#fff" stop-opacity=".98"/><stop offset="1" stop-color="#cbd5e1" stop-opacity=".78"/></linearGradient><filter id="ds" width="150%" height="160%" x="-25%" y="-25%"><feDropShadow dx="0" dy="6" flood-color="#000" flood-opacity=".45" stdDeviation="8"/></filter></defs><rect width="224" height="224" x="16" y="16" fill="url(#bg)" filter="url(#ds)" rx="54"/><rect width="224" height="120" x="16" y="16" fill="url(#hi)" rx="54"/><circle cx="128" cy="130" r="78" fill="url(#gl)"/><g fill="url(#chrome)" transform="translate(80,80)"><rect width="96" height="94" x="0" y="0" fill="#063243" stroke="url(#chrome)" stroke-width="3" rx="10"/><rect width="14" height="28" x="14" y="52" rx="3"/><rect width="14" height="46" x="34" y="34" rx="3"/><rect width="14" height="38" x="54" y="42" rx="3"/><rect width="12" height="58" x="74" y="22" opacity=".8" rx="3"/></g><rect width="223" height="223" x="16.5" y="16.5" fill="none" stroke="#fff" stroke-opacity=".18" stroke-width="2" rx="53.5"/></svg>