<svg xmlns="http://www.w3.org/2000/svg" aria-label="Tenant and store management route family icon" role="img" viewBox="0 0 96 96"><title>RF-2 — Tenant &amp; store management</title><defs><linearGradient id="f" x1="0" x2="0" y1="0" y2="1"><stop offset="0" stop-color="#0e7490"/><stop offset="1" stop-color="#063243"/></linearGradient><linearGradient id="c" x1="0" x2="0" y1="0" y2="1"><stop offset="0" stop-color="#fff" stop-opacity=".98"/><stop offset="1" stop-color="#cbd5e1" stop-opacity=".78"/></linearGradient><filter id="s" width="160%" height="170%" x="-30%" y="-30%"><feDropShadow dx="0" dy="4" flood-color="#000" flood-opacity=".45" stdDeviation="4"/></filter></defs><ellipse cx="48" cy="86" fill="#000" opacity=".35" rx="32" ry="6"/><rect width="64" height="58" x="16" y="22" fill="#03222e" rx="16"/><rect width="64" height="60" x="16" y="14" fill="url(#f)" filter="url(#s)" rx="16"/><rect width="64" height="22" x="16" y="14" fill="#fff" opacity=".12" rx="16"/><g fill="url(#c)" transform="translate(30,28)"><rect width="16" height="26" x="0" y="8" fill="#063243" stroke="url(#c)" stroke-width="2" rx="2"/><rect width="16" height="34" x="20" y="0" fill="#063243" stroke="url(#c)" stroke-width="2" rx="2"/><rect width="3.5" height="3.5" x="4" y="13"/><rect width="3.5" height="3.5" x="9" y="13"/><rect width="3.5" height="3.5" x="4" y="20"/><rect width="3.5" height="3.5" x="9" y="20"/><rect width="3.5" height="3.5" x="24" y="6"/><rect width="3.5" height="3.5" x="29" y="6"/><rect width="3.5" height="3.5" x="24" y="13"/><rect width="3.5" height="3.5" x="29" y="13"/><rect width="3.5" height="3.5" x="24" y="20"/><rect width="3.5" height="3.5" x="29" y="20"/></g></svg>