<svg xmlns="http://www.w3.org/2000/svg" viewBox="0 0 96 96" role="img" aria-label="Audit and operational search route family icon">
  <title>RF-6 — Audit &amp; operational search</title>
  <defs>
    <linearGradient id="f" x1="0" y1="0" x2="0" y2="1"><stop offset="0" stop-color="#0e7490"/><stop offset="1" stop-color="#063243"/></linearGradient>
    <linearGradient id="c" x1="0" y1="0" x2="0" y2="1"><stop offset="0" stop-color="#ffffff" stop-opacity=".98"/><stop offset="1" stop-color="#cbd5e1" stop-opacity=".78"/></linearGradient>
    <filter id="s" x="-30%" y="-30%" width="160%" height="170%"><feDropShadow dx="0" dy="4" stdDeviation="4" flood-color="#000" flood-opacity=".45"/></filter>
  </defs>
  <ellipse cx="48" cy="86" rx="32" ry="6" fill="#000" opacity=".35"/>
  <rect x="16" y="22" width="64" height="58" rx="16" fill="#03222e"/>
  <rect x="16" y="14" width="64" height="60" rx="16" fill="url(#f)" filter="url(#s)"/>
  <rect x="16" y="14" width="64" height="22" rx="16" fill="#fff" opacity=".12"/>
  <g transform="translate(28,28)">
    <rect x="0" y="0" width="22" height="30" rx="3" fill="#063243" stroke="url(#c)" stroke-width="2"/>
    <rect x="4" y="6" width="14" height="2.6" rx="1.3" fill="url(#c)"/>
    <rect x="4" y="12" width="14" height="2.6" rx="1.3" fill="url(#c)"/>
    <rect x="4" y="18" width="9" height="2.6" rx="1.3" fill="url(#c)"/>
    <circle cx="26" cy="22" r="8" fill="none" stroke="url(#c)" stroke-width="3.2"/>
    <rect x="31" y="27" width="9" height="3.4" rx="1.7" transform="rotate(45 31 27)" fill="url(#c)"/>
  </g>
</svg>
