<svg xmlns="http://www.w3.org/2000/svg" aria-label="Audit and operational search route family icon" role="img" viewBox="0 0 96 96"><title>RF-6 — Audit &amp; operational search</title><defs><linearGradient id="f" x1="0" x2="0" y1="0" y2="1"><stop offset="0" stop-color="#0e7490"/><stop offset="1" stop-color="#063243"/></linearGradient><linearGradient id="c" x1="0" x2="0" y1="0" y2="1"><stop offset="0" stop-color="#fff" stop-opacity=".98"/><stop offset="1" stop-color="#cbd5e1" stop-opacity=".78"/></linearGradient><filter id="s" width="160%" height="170%" x="-30%" y="-30%"><feDropShadow dx="0" dy="4" flood-color="#000" flood-opacity=".45" stdDeviation="4"/></filter></defs><ellipse cx="48" cy="86" fill="#000" opacity=".35" rx="32" ry="6"/><rect width="64" height="58" x="16" y="22" fill="#03222e" rx="16"/><rect width="64" height="60" x="16" y="14" fill="url(#f)" filter="url(#s)" rx="16"/><rect width="64" height="22" x="16" y="14" fill="#fff" opacity=".12" rx="16"/><g transform="translate(28,28)"><rect width="22" height="30" x="0" y="0" fill="#063243" stroke="url(#c)" stroke-width="2" rx="3"/><rect width="14" height="2.6" x="4" y="6" fill="url(#c)" rx="1.3"/><rect width="14" height="2.6" x="4" y="12" fill="url(#c)" rx="1.3"/><rect width="9" height="2.6" x="4" y="18" fill="url(#c)" rx="1.3"/><circle cx="26" cy="22" r="8" fill="none" stroke="url(#c)" stroke-width="3.2"/><rect width="9" height="3.4" x="31" y="27" fill="url(#c)" rx="1.7" transform="rotate(45 31 27)"/></g></svg>