<svg xmlns="http://www.w3.org/2000/svg" aria-label="Settings and system management route family icon" role="img" viewBox="0 0 96 96"><title>RF-7 — Settings &amp; system management</title><defs><linearGradient id="f" x1="0" x2="0" y1="0" y2="1"><stop offset="0" stop-color="#0e7490"/><stop offset="1" stop-color="#063243"/></linearGradient><linearGradient id="c" x1="0" x2="0" y1="0" y2="1"><stop offset="0" stop-color="#fff" stop-opacity=".98"/><stop offset="1" stop-color="#cbd5e1" stop-opacity=".78"/></linearGradient><filter id="s" width="160%" height="170%" x="-30%" y="-30%"><feDropShadow dx="0" dy="4" flood-color="#000" flood-opacity=".45" stdDeviation="4"/></filter></defs><ellipse cx="48" cy="86" fill="#000" opacity=".35" rx="32" ry="6"/><rect width="64" height="58" x="16" y="22" fill="#03222e" rx="16"/><rect width="64" height="60" x="16" y="14" fill="url(#f)" filter="url(#s)" rx="16"/><rect width="64" height="22" x="16" y="14" fill="#fff" opacity=".12" rx="16"/><g fill="url(#c)" transform="translate(48,45)"><path d="M-3 -19 h6 l1.4 5.2 a14 14 0 0 1 4.4 2.6 l5-2.2 3 5.2 -3.8 3.6 a14 14 0 0 1 0 5.2 l3.8 3.6 -3 5.2 -5-2.2 a14 14 0 0 1 -4.4 2.6 L3 19 h-6 l-1.4 -5.2 a14 14 0 0 1 -4.4 -2.6 l-5 2.2 -3 -5.2 3.8 -3.6 a14 14 0 0 1 0 -5.2 l-3.8 -3.6 3 -5.2 5 2.2 a14 14 0 0 1 4.4 -2.6 Z"/><circle cx="0" cy="0" r="6" fill="#063243"/></g></svg>